# xmcd
#
# Track frame offsets:
#	150
#	12147
#	23248
#	33011
#	46737
#	57529
#	70068
#	80088
#	89841
#	102157
#	111991
#	120449
#	132293
#	142438
#	152442
#	164932
#	173772
#	185263
#	199203
#	209740
#	219180
#	229149
#
# Disc length: 3229 seconds
#
# Revision: 0
# Processed by: cddbd v1.5.2PL0 Copyright (c) Steve Scherf et al.
# Submitted via: audiograbber 1.83.01
#
DISCID=3f0c9b16
DTITLE=Time Life Music - The Rock'N'Roll Era - 1958 [CD1)
DYEAR=1958
DGENRE=Rock and Roll
TTITLE0=Tommy Edwards - It's All In The Game
TTITLE1=Kalin Twins - When
TTITLE2=The Crickets - Oh Boy
TTITLE3=Chuck Berry - Sweet Little Sixteen
TTITLE4=Duane Eddy - Rebel Rouser
TTITLE5=The Platters - Twilight Time
TTITLE6=Connie Francis - Stupd Cupid
TTITLE7=Little Richard - Good Golly Miss Molly
TTITLE8=Jerry Lee Lewis - Breathless
TTITLE9=The Chordettes - Lollipop
TTITLE10=The Coasters - Yakety Yak
TTITLE11=Marvin Rainwater - Whole Lotta Woman
TTITLE12=Conway Twitty - It's Only Make Believe
TTITLE13=Bobby Darin - Splish Splash
TTITLE14=Jack Scott - My True Love
TTITLE15=Eddie Cochran - Summertime Blues
TTITLE16=Danny and The Juniors - At The Hop
TTITLE17=Larry Williams - Bony Moronie
TTITLE18=Marty Wilde - Endless Sleep
TTITLE19=Pat Boone - A Wonderful Time Up There
TTITLE20=The Champs - Tequila
TTITLE21=Art and Dotty Todd - Chanson D'amour
EXTD=
EXTT0=
EXTT1=
EXTT2=
EXTT3=
EXTT4=
EXTT5=
EXTT6=
EXTT7=
EXTT8=
EXTT9=
EXTT10=
EXTT11=
EXTT12=
EXTT13=
EXTT14=
EXTT15=
EXTT16=
EXTT17=
EXTT18=
EXTT19=
EXTT20=
EXTT21=
PLAYORDER=
